<svg id="Notifications" xmlns="http://www.w3.org/2000/svg" width="22.473" height="22.588" viewBox="0 0 22.473 22.588">
  <path id="Path_1" data-name="Path 1" d="M21.151,19.765H14.092a2.824,2.824,0,1,1-5.647,0H1.386a1.356,1.356,0,0,1-1.271-.988,1.507,1.507,0,0,1,.424-1.553A5.684,5.684,0,0,0,2.8,12.706V8.471a8.471,8.471,0,1,1,16.941,0v4.235A5.684,5.684,0,0,0,22,17.224a1.337,1.337,0,0,1,.424,1.553A1.356,1.356,0,0,1,21.151,19.765Z" transform="translate(-0.063)" fill="#fff" fill-rule="evenodd"/>
</svg>
